<?xml version="1.0" encoding="utf-8"?>
<!-- Generator: Adobe Illustrator 23.0.0, SVG Export Plug-In . SVG Version: 6.00 Build 0)  -->
<svg version="1.1" id="Layer_1" xmlns="http://www.w3.org/2000/svg" xmlns:xlink="http://www.w3.org/1999/xlink" x="0px" y="0px"
	 viewBox="0 0 400 400" style="enable-background:new 0 0 400 400;" xml:space="preserve">
<style type="text/css">
	.st0{fill:#011C65;}
</style>
<path class="st0" d="M367.3,189.3c0-21.8-9.7-41.3-25-54.5C338.4,60.1,275.7,0,200.2,0C124.9,0,62.2,60.1,58.3,134.9
	c-15.3,13.2-25,32.7-25,54.5c0,39.7,32.3,72,72,72c5,0,9.1-4.1,9.1-9.1l0-125.8c0-2.4-1-4.7-2.7-6.5c-1.7-1.7-4-2.7-6.5-2.7
	c-9.7,0-18.9,2-27.4,5.4C87.4,63.8,139,18.3,200.3,18.3c61.3,0,112.8,45.5,122.3,104.5c-8.5-3.5-17.7-5.4-27.4-5.4
	c-5,0-9.1,4.1-9.1,9.1v125.8c0,5.1,4.1,9.1,9.1,9.1c9.7,0,19-2,27.4-5.5c-7.7,48.4-43.8,88.4-91.7,100.5
	c-5.5-10.2-17.1-17.4-30.7-17.4c-18.8,0-34.1,13.7-34.1,30.5s15.3,30.5,34.1,30.5c16.9,0,30.9-11.1,33.6-25.5
	c60.7-14.6,105.3-68.1,108.5-130.8C357.6,230.5,367.3,211.1,367.3,189.3z M96.2,242.3c-25.3-4.4-44.6-26.5-44.6-53
	s19.3-48.6,44.6-53L96.2,242.3z M200.2,381.7c-8.7,0-15.9-5.5-15.9-12.2s7.1-12.2,15.9-12.2s15.9,5.5,15.9,12.2
	S209,381.7,200.2,381.7z M304.4,136.3c25.3,4.4,44.6,26.5,44.6,53s-19.3,48.6-44.6,53V136.3z"/>
</svg>
