<?xml version="1.0"?>
<svg xmlns="http://www.w3.org/2000/svg" height="512px" viewBox="0 0 60 60" width="512px"><g><g id="Page-1" fill="none" fill-rule="evenodd"><g id="058---Path-Tool" fill="rgb(0,0,0)" fill-rule="nonzero"><path id="Shape" d="m58 39h-2.328c-.8389425-6.6866216-3.3590863-13.0514899-7.325-18.5 2.3775112-2.8123159 2.1653026-6.9868602-.4851383-9.5435853-2.6504409-2.55672513-6.8299178-2.61858257-9.5548617-.1414147-5.1816621-3.48748051-11.1097024-5.70976774-17.307-6.488v-2.327c0-1.1045695-.8954305-2-2-2h-6c-1.1045695 0-2 .8954305-2 2v6c0 1.1045695.8954305 2 2 2h6c1.1045695 0 2-.8954305 2-2v-1.656c5.7318143.75762385 11.2141537 2.81722114 16.027 6.021-1.0925997 1.7654046-1.3271677 3.930563-.638 5.889l-13.326 2.826c-3.2804822.6872943-6.0650142 2.8401842-7.556 5.842l-7.124 14.248-.434-.434c-1.17149955-1.1711458-3.07050045-1.1711458-4.242 0l-2.828 2.828c-.56302502.5626643-.87935953 1.3260174-.87935953 2.122s.31633451 1.5593357.87935953 2.122l11.313 11.313c.5626237.562719 1.3257625.8788593 2.1215.8788593s1.5588763-.3161403 2.1215-.8788593l2.83-2.828c1.1711458-1.1714996 1.1711458-3.0705004 0-4.242l-.434-.434 14.248-7.124c3.0018158-1.4909858 5.1547057-4.2755178 5.842-7.556l2.974-14.024c.3654957.0578159.7349597.0869049 1.105.087 1.3689708.0021049 2.7079154-.4011791 3.848-1.159 3.649479 5.0705175 5.9873145 10.965436 6.805 17.159h-1.653c-1.1045695 0-2 .8954305-2 2v6c0 1.1045695.8954305 2 2 2h6c1.1045695 0 2-.8954305 2-2v-6c0-1.1045695-.8954305-2-2-2zm-39-31h-6v-6h6zm-8.222 38.393-4.243 4.243-2.121-2.121 4.243-4.243zm-8.485-1.414 2.828-2.828c.39049985-.3903819 1.02350015-.3903819 1.414 0l.708.708-4.243 4.241-.707-.707c-.18777704-.1875683-.29328666-.4420908-.29328666-.7075s.10550962-.5199317.29328666-.7075zm15.557 9.9-2.83 2.828c-.395481.3781625-1.018519.3781625-1.414 0l-5.657-5.657 4.243-4.242 5.658 5.657c.3903819.3904999.3903819 1.0235001 0 1.414zm19.113-18.357c-.562827 2.6825329-2.3239467 4.9592012-4.779 6.178l-14.845 7.426-.9-.9 1.415-1.414c.3789722-.3923789.3735524-1.0160848-.0121814-1.4018186s-1.0094397-.3911536-1.4018186-.0121814l-1.415 1.414-2.829-2.829 1.414-1.415c.2599566-.2510745.3642126-.6228779.2726972-.9725073-.0915155-.3496295-.3645604-.6226744-.7141899-.7141899-.3496294-.0915154-.7214328.0127406-.9725073.2726972l-1.414 1.415-.9-.9 7.418-14.853c1.2196343-2.4560164 3.4979725-4.2172876 6.182-4.779l15.318-3.249-10.445 10.443c-1.7351365-1.0230822-3.9603388-.5963292-5.1938703.996089s-1.0905208 3.8536548.3338028 5.2779785c1.4243237 1.4243236 3.6855603 1.5673343 5.2779785.3338028s2.0191712-3.4587338.996089-5.1938703l10.443-10.445zm-9.214-1.442c-.7811322.7808158-2.0473148.7806448-2.8282361-.0003819-.7809213-.7810268-.7809213-2.0472094 0-2.8282362.7809213-.7810267 2.0471039-.7811977 2.8282361-.0003819.375248.375096.5860729.8839266.5860729 1.4145s-.2108249 1.039404-.5860729 1.4145zm14.514-14.137c.0867494-.9423863-.2809605-1.8696732-.9899736-2.4965048s-1.67438-.8781049-2.5990264-.6764952l-.32.067c-.9328939-2.3494204.0345093-5.0255511 2.2540505-6.2353875 2.2195413-1.2098364 4.9929263-.5727494 6.4619903 1.4844133s1.1716217 4.8871932-.6930408 6.5939742c-.916851.8534284-2.1244322 1.3254471-3.377 1.32-.2467233-.0011162-.4930391-.0201664-.737-.057zm15.737 26.057h-6v-6h6z" data-original="#000000" class="active-path" data-old_color="#000000" fill="#011C65"/></g></g></g> </svg>
