<?xml version="1.0"?>
<svg xmlns="http://www.w3.org/2000/svg" xmlns:xlink="http://www.w3.org/1999/xlink" version="1.1" id="Capa_1" x="0px" y="0px" viewBox="0 0 511.989 511.989" style="enable-background:new 0 0 511.989 511.989;" xml:space="preserve" width="512px" height="512px"><g><g>
	<g>
		<path d="M468.603,45.685L320.027,0.693c-3.424-1.056-7.136-0.896-10.464,0.416L42.139,106.101    c-6.112,2.4-10.144,8.288-10.144,14.88v284.768c-0.032,2.72,0.608,5.344,1.952,7.68c0.032,0.032,0.032,0.032,0.032,0.064v0.032    v0.032c0,0.032,0,0.032,0,0.032c0.128,0.256,0.288,0.512,0.448,0.768c0,0.032,0,0.032,0,0.064c0.032,0,0.032,0.032,0.032,0.032    c0,0.032,0,0.032,0,0.032s0,0,0,0.032c0,0,0,0,0,0.032c1.792,2.848,4.448,5.12,7.776,6.4c0.224,0.096,0.48,0.16,0.736,0.256    l267.36,89.952c1.664,0.544,3.36,0.832,5.088,0.832c1.568,0,3.136-0.224,4.64-0.672l148.576-44.992    c6.72-2.048,11.36-8.256,11.36-15.328V60.981C479.995,53.941,475.355,47.701,468.603,45.685z M447.995,439.125l-132.32,40.064    l-117.344-39.488l115.232,13.504c4.192,0.416,9.088-0.928,12.48-3.968c3.424-3.04,5.376-7.36,5.376-11.936V106.005    c0-4.704-2.08-9.184-5.664-12.224c-3.584-3.008-8.32-4.256-12.992-3.552l-178.272,29.984c-7.712,1.28-13.344,7.968-13.344,15.776    v228.512l-57.152,19.264V131.893l252.128-98.976l131.872,39.936V439.125z M120.699,398.421l21.568-7.264    c6.496-2.208,10.88-8.288,10.88-15.168V149.525l146.272-24.608v294.4L120.699,398.421z" data-original="#000000" class="active-path" data-old_color="#000000" fill="#011C65"/>
	</g>
</g></g> </svg>
