<?xml version="1.0" encoding="utf-8"?>
<!-- Generator: Adobe Illustrator 23.0.0, SVG Export Plug-In . SVG Version: 6.00 Build 0)  -->
<svg version="1.1" id="Layer_1" xmlns="http://www.w3.org/2000/svg" xmlns:xlink="http://www.w3.org/1999/xlink" x="0px" y="0px"
	 viewBox="0 0 420 420" style="enable-background:new 0 0 420 420;" xml:space="preserve">
<style type="text/css">
	.st0{fill:#0E3EB6;}
</style>
<path class="st0" d="M307.1,259.6l-41.8-17.1c-8.1-3.3-17.4-1.2-23.1,5.2l-35.5,38.3c-25.4-16.3-47-37.9-63.4-63.2l38.3-35.4
	c6.5-5.8,8.6-15.1,5.3-23.2l-17.1-41.8c-3.2-7.8-10.7-12.8-19.1-12.8H91.6l0.4,9.5c1.5,37.6,12.5,74.6,31.7,106.9
	c20.4,31.4,47.3,57.8,79.8,79.8c32.3,19.2,69.3,30.2,107,31.7l9.5,0.4v-59.2C320,270.3,314.9,262.8,307.1,259.6z M110.8,127.8h40
	c1,0,1.9,0.6,2.2,1.5l17.1,41.8v0c0.4,0.9,0.1,2-0.7,2.8l-35.5,32.8C121.1,182.3,113.2,155.4,110.8,127.8z M301.7,318.7
	c-27.6-2.4-54.5-10.3-79-23l33-35.6c0.7-0.8,1.7-1,2.7-0.6l41.8,17.1c0.9,0.4,1.5,1.3,1.5,2.2V318.7z"/>
<path class="st0" d="M402.2,210c-5,0-9.1,4.1-9.1,9.1c0,100.7-81.9,182.6-182.6,182.6c-100.7,0-182.6-81.9-182.6-182.6
	c0-99.3,79.8-180.3,178.6-182.4l-2.5,2.5c-3.6,3.6-3.6,9.3,0,12.9c1.8,1.8,4.1,2.7,6.5,2.7s4.7-0.9,6.5-2.7l18.3-18.3
	c3.6-3.6,3.6-9.3,0-12.9L216.9,2.7c-3.6-3.6-9.3-3.6-12.9,0c-3.6,3.6-3.6,9.3,0,12.9l2.8,2.8C97.7,20.3,9.6,109.6,9.6,219.1
	C9.6,329.9,99.7,420,210.4,420s200.9-90.1,200.9-200.9C411.3,214.1,407.2,210,402.2,210z"/>
<path class="st0" d="M138.2,216.3l39.4-39.4l-19.7-56.2l-55.7-3.4c0,0-4.1,52.3,30.7,106.3s90.7,86.2,122.4,97.7
	c31.7,11.5,55.7,8.6,55.7,8.6v-56.6l-51.8-22.1l-46.1,41.8C213.1,293.1,160.8,274.9,138.2,216.3z"/>
</svg>
