<?xml version="1.0" encoding="utf-8"?>
<!-- Generator: Adobe Illustrator 23.0.0, SVG Export Plug-In . SVG Version: 6.00 Build 0)  -->
<svg version="1.1" id="Layer_1" xmlns="http://www.w3.org/2000/svg" xmlns:xlink="http://www.w3.org/1999/xlink" x="0px" y="0px"
	 viewBox="0 0 512 512" style="enable-background:new 0 0 512 512;" xml:space="preserve">
<style type="text/css">
	.st0{fill:#E6E6E6;}
</style>
<g>
	<path class="st0" d="M153.6,460.8h25.6c14.2,0,25.6-11.5,25.6-25.6c0-14.1-11.4-25.6-25.6-25.6h-25.6
		c-56.5,0-102.4-45.9-102.4-102.4v-52.5c4.1,0.8,8.4,1.3,12.8,1.3h76.8c35.3,0,64-28.7,64-64v-76.8c0-35.3-28.7-64-64-64H64
		c-35.3,0-64,28.7-64,64v192C0,391.9,68.9,460.8,153.6,460.8z"/>
	<path class="st0" d="M460.8,460.8h25.6c14.2,0,25.6-11.5,25.6-25.6c0-14.1-11.4-25.6-25.6-25.6h-25.6
		c-56.5,0-102.4-45.9-102.4-102.4v-52.5c4.1,0.8,8.4,1.3,12.8,1.3H448c35.3,0,64-28.7,64-64v-76.8c0-35.3-28.7-64-64-64h-76.8
		c-35.3,0-64,28.7-64,64v192C307.2,391.9,376.1,460.8,460.8,460.8z"/>
</g>
</svg>
